<?xml version="1.0" encoding="UTF-8"?>
<!DOCTYPE svg PUBLIC "-//W3C//DTD SVG 1.1//EN" "http://www.w3.org/Graphics/SVG/1.1/DTD/svg11.dtd">
<svg xmlns="http://www.w3.org/2000/svg" version="1.1" width="506px" height="493px" style="shape-rendering:geometricPrecision; text-rendering:geometricPrecision; image-rendering:optimizeQuality; fill-rule:evenodd; clip-rule:evenodd" xmlns:xlink="http://www.w3.org/1999/xlink">
<g><path style="opacity:1" fill="#a8a8fd" d="M -0.5,-0.5 C 136.5,-0.5 273.5,-0.5 410.5,-0.5C 410.5,27.1667 410.5,54.8333 410.5,82.5C 442.167,82.5 473.833,82.5 505.5,82.5C 505.5,82.8333 505.5,83.1667 505.5,83.5C 472.833,83.5 440.167,83.5 407.5,83.5C 302.001,82.5005 196.335,82.1672 90.5,82.5C 90.5,192.167 90.5,301.833 90.5,411.5C 90.1667,411.5 89.8333,411.5 89.5,411.5C 59.507,412.297 29.507,412.63 -0.5,412.5C -0.5,274.833 -0.5,137.167 -0.5,-0.5 Z"/></g>
<g><path style="opacity:1" fill="#898afd" d="M 399.5,83.5 C 402.167,83.5 404.833,83.5 407.5,83.5C 440.167,83.5 472.833,83.5 505.5,83.5C 505.5,219.833 505.5,356.167 505.5,492.5C 367.5,492.5 229.5,492.5 91.5,492.5C 91.5,465.5 91.5,438.5 91.5,411.5C 91.5,409.5 91.5,407.5 91.5,405.5C 92.8221,405.33 93.9887,405.663 95,406.5C 95.6174,403.824 94.7841,403.157 92.5,404.5C 91.5713,403.311 91.238,401.978 91.5,400.5C 92.8333,349.338 93.5,297.838 93.5,246C 93.3203,192.472 93.1536,138.972 93,85.5C 195.264,84.8344 297.431,84.1678 399.5,83.5 Z"/></g>
<g><path style="opacity:1" fill="#9494f9" d="M 407.5,83.5 C 404.833,83.5 402.167,83.5 399.5,83.5C 296.833,83.5 194.167,83.5 91.5,83.5C 91.5,189.167 91.5,294.833 91.5,400.5C 91.238,401.978 91.5713,403.311 92.5,404.5C 94.7841,403.157 95.6174,403.824 95,406.5C 93.9887,405.663 92.8221,405.33 91.5,405.5C 91.5,407.5 91.5,409.5 91.5,411.5C 91.1667,411.5 90.8333,411.5 90.5,411.5C 90.5,301.833 90.5,192.167 90.5,82.5C 196.335,82.1672 302.001,82.5005 407.5,83.5 Z"/></g>
<g><path style="opacity:1" fill="#898af7" d="M 399.5,83.5 C 297.431,84.1678 195.264,84.8344 93,85.5C 93.1536,138.972 93.3203,192.472 93.5,246C 93.5,297.838 92.8333,349.338 91.5,400.5C 91.5,294.833 91.5,189.167 91.5,83.5C 194.167,83.5 296.833,83.5 399.5,83.5 Z"/></g>
<g><path style="opacity:1" fill="#8c8ee9" d="M 256.5,211.5 C 253.287,211.19 250.287,211.523 247.5,212.5C 242.544,212.905 237.877,214.238 233.5,216.5C 233.577,215.25 234.244,214.417 235.5,214C 235.167,213.667 234.833,213.333 234.5,213C 237.7,212.899 240.7,212.232 243.5,211C 248.02,210.186 252.354,210.353 256.5,211.5 Z"/></g>
<g><path style="opacity:1" fill="#fcfdfd" d="M 247.5,212.5 C 250.833,212.5 254.167,212.5 257.5,212.5C 258.06,219.121 257.393,225.455 255.5,231.5C 251.353,231.126 247.686,232.126 244.5,234.5C 240.911,235.092 238.578,237.092 237.5,240.5C 236.034,241.347 235.2,242.68 235,244.5C 234.19,248.358 234.357,252.024 235.5,255.5C 238.319,265.583 244.985,270.916 255.5,271.5C 264.932,275.201 274.598,278.534 284.5,281.5C 287.388,282.98 290.388,284.313 293.5,285.5C 302.556,290.876 308.556,298.543 311.5,308.5C 311.691,316.201 311.358,323.868 310.5,331.5C 308.836,335.496 307.169,339.496 305.5,343.5C 302.5,345.833 299.833,348.5 297.5,351.5C 293.66,353.811 289.66,355.977 285.5,358C 280.79,359.061 276.123,360.228 271.5,361.5C 261.817,361.532 252.151,361.199 242.5,360.5C 239.461,359.99 236.461,359.323 233.5,358.5C 225.339,354.67 218.339,349.336 212.5,342.5C 211.974,340.77 210.974,339.436 209.5,338.5C 207.751,334.431 206.084,330.264 204.5,326C 207.699,323.882 211.033,322.048 214.5,320.5C 219.078,319.085 223.745,318.085 228.5,317.5C 229.364,322.455 231.364,326.789 234.5,330.5C 236.987,334.415 240.32,337.415 244.5,339.5C 253.775,344.326 263.441,344.826 273.5,341C 275.066,340.392 276.4,339.558 277.5,338.5C 279.151,337.03 280.985,335.697 283,334.5C 283.791,333.255 284.291,331.922 284.5,330.5C 285.222,330.082 285.722,329.416 286,328.5C 287.061,322.276 286.394,316.276 284,310.5C 283.292,309.619 282.458,308.953 281.5,308.5C 277.743,304.287 273.076,301.62 267.5,300.5C 258.923,297.898 250.257,295.231 241.5,292.5C 236.899,290.199 232.232,287.866 227.5,285.5C 222.54,282.208 218.207,278.208 214.5,273.5C 213.342,270.011 212.009,266.678 210.5,263.5C 210.5,262.833 210.5,262.167 210.5,261.5C 208.89,253.719 209.223,246.052 211.5,238.5C 214.837,229.81 220.503,223.144 228.5,218.5C 230.05,217.559 231.716,216.893 233.5,216.5C 237.877,214.238 242.544,212.905 247.5,212.5 Z"/></g>
<g><path style="opacity:1" fill="#918ef3" d="M 300.5,229.5 C 291.678,219.089 280.345,213.422 266.5,212.5C 266.97,211.307 267.97,210.64 269.5,210.5C 272.079,210.86 274.579,211.526 277,212.5C 278.473,212.097 279.806,211.43 281,210.5C 282.356,211.38 283.856,211.714 285.5,211.5C 285.67,212.822 285.337,213.989 284.5,215C 287.014,216.452 289.68,217.618 292.5,218.5C 292.976,221.201 293.976,221.701 295.5,220C 299.027,219.118 299.693,219.618 297.5,221.5C 298.025,222.192 298.692,222.692 299.5,223C 298.692,223.308 298.025,223.808 297.5,224.5C 299.341,224.968 300.341,226.634 300.5,229.5 Z"/></g>
<g><path style="opacity:1" fill="#fcfbfd" d="M 266.5,212.5 C 280.345,213.422 291.678,219.089 300.5,229.5C 301.167,230.5 301.833,231.5 302.5,232.5C 305.605,237.475 307.938,242.808 309.5,248.5C 307.214,248.595 305.214,249.262 303.5,250.5C 297.949,251.416 292.615,252.75 287.5,254.5C 286.5,254.5 285.5,254.5 284.5,254.5C 284.472,251.084 283.472,248.084 281.5,245.5C 281.5,244.833 281.167,244.5 280.5,244.5C 277.952,237.947 273.285,233.947 266.5,232.5C 266.5,225.833 266.5,219.167 266.5,212.5 Z"/></g>
<g><path style="opacity:1" fill="#fdfefe" d="M 339.5,213.5 C 371.167,213.5 402.833,213.5 434.5,213.5C 434.5,219.833 434.5,226.167 434.5,232.5C 410.994,232.169 387.661,232.502 364.5,233.5C 364.5,253.167 364.5,272.833 364.5,292.5C 363.503,314.327 363.169,336.327 363.5,358.5C 355.5,358.5 347.5,358.5 339.5,358.5C 339.5,310.167 339.5,261.833 339.5,213.5 Z"/></g>
<g><path style="opacity:1" fill="#d4d2fe" d="M 247.5,212.5 C 250.287,211.523 253.287,211.19 256.5,211.5C 257.492,211.328 258.158,211.662 258.5,212.5C 258.5,218.833 258.5,225.167 258.5,231.5C 257.5,231.5 256.5,231.5 255.5,231.5C 257.393,225.455 258.06,219.121 257.5,212.5C 254.167,212.5 250.833,212.5 247.5,212.5 Z"/></g>
<g><path style="opacity:1" fill="#8991ef" d="M 338.5,213.5 C 338.5,262.167 338.5,310.833 338.5,359.5C 337.167,337.177 336.5,314.51 336.5,291.5C 336.667,268.833 336.833,246.167 337,223.5C 337.179,219.975 337.679,216.641 338.5,213.5 Z"/></g>
<g><path style="opacity:1" fill="#dae1fe" d="M 338.5,213.5 C 338.833,213.5 339.167,213.5 339.5,213.5C 339.5,261.833 339.5,310.167 339.5,358.5C 347.5,358.5 355.5,358.5 363.5,358.5C 363.169,336.327 363.503,314.327 364.5,292.5C 364.5,314.833 364.5,337.167 364.5,359.5C 355.833,359.5 347.167,359.5 338.5,359.5C 338.5,310.833 338.5,262.167 338.5,213.5 Z"/></g>
<g><path style="opacity:1" fill="#8d90f4" d="M 228.5,218.5 C 220.503,223.144 214.837,229.81 211.5,238.5C 211.167,238.5 210.833,238.5 210.5,238.5C 209.382,235.372 209.549,232.372 211,229.5C 211.777,231.701 212.944,231.701 214.5,229.5C 213.975,228.808 213.308,228.308 212.5,228C 213.76,226.887 214.927,226.72 216,227.5C 216.333,225.833 216.667,224.167 217,222.5C 220.497,221.216 224.331,219.882 228.5,218.5 Z"/></g>
<g><path style="opacity:1" fill="#8a8bf3" d="M 258.5,212.5 C 259.314,214.631 259.814,216.964 260,219.5C 260.9,220.77 262.066,221.77 263.5,222.5C 262.675,223.386 261.675,223.719 260.5,223.5C 260.5,226.167 260.5,228.833 260.5,231.5C 261.833,231.5 263.167,231.5 264.5,231.5C 264.454,224.95 265.121,218.617 266.5,212.5C 266.5,219.167 266.5,225.833 266.5,232.5C 273.285,233.947 277.952,237.947 280.5,244.5C 278.717,245.427 277.051,246.26 275.5,247C 274.089,244.004 273.089,240.837 272.5,237.5C 271.28,236.289 270.113,236.289 269,237.5C 268.671,233.96 266.838,232.794 263.5,234C 266.167,234.667 266.167,235.333 263.5,236C 264.759,236.923 266.092,237.757 267.5,238.5C 266.372,239.262 265.205,239.929 264,240.5C 263.71,238.956 263.044,237.623 262,236.5C 257.721,239.453 255.555,240.12 255.5,238.5C 255.5,237.5 255.5,236.5 255.5,235.5C 251.865,234.886 248.198,234.552 244.5,234.5C 247.686,232.126 251.353,231.126 255.5,231.5C 256.5,231.5 257.5,231.5 258.5,231.5C 258.5,225.167 258.5,218.833 258.5,212.5 Z"/></g>
<g><path style="opacity:1" fill="#e8e7fd" d="M 434.5,213.5 C 435.167,213.5 435.5,213.833 435.5,214.5C 435.823,221.022 435.49,227.355 434.5,233.5C 411.167,233.5 387.833,233.5 364.5,233.5C 387.661,232.502 410.994,232.169 434.5,232.5C 434.5,226.167 434.5,219.833 434.5,213.5 Z"/></g>
<g><path style="opacity:1" fill="#8b89f0" d="M 435.5,214.5 C 436.487,219.305 436.821,224.305 436.5,229.5C 437.5,229.5 438.5,229.5 439.5,229.5C 439.665,232.85 439.498,236.183 439,239.5C 438.02,237.941 437.187,236.274 436.5,234.5C 413.212,235.49 389.879,235.823 366.5,235.5C 389.167,234.833 411.833,234.167 434.5,233.5C 435.49,227.355 435.823,221.022 435.5,214.5 Z"/></g>
<g><path style="opacity:1" fill="#969ef0" d="M 210.5,238.5 C 210.833,238.5 211.167,238.5 211.5,238.5C 209.223,246.052 208.89,253.719 210.5,261.5C 209.883,261.389 209.383,261.056 209,260.5C 207.99,252.993 208.49,245.66 210.5,238.5 Z"/></g>
<g><path style="opacity:1" fill="#9892eb" d="M 302.5,232.5 C 304.193,233.475 305.693,234.808 307,236.5C 308.77,240.696 309.937,245.029 310.5,249.5C 308.194,249.993 305.861,250.326 303.5,250.5C 305.214,249.262 307.214,248.595 309.5,248.5C 307.938,242.808 305.605,237.475 302.5,232.5 Z"/></g>
<g><path style="opacity:1" fill="#b2aaeb" d="M 237.5,240.5 C 235.853,245.275 235.186,250.275 235.5,255.5C 234.357,252.024 234.19,248.358 235,244.5C 235.2,242.68 236.034,241.347 237.5,240.5 Z"/></g>
<g><path style="opacity:1" fill="#949bef" d="M 281.5,245.5 C 283.472,248.084 284.472,251.084 284.5,254.5C 283.351,254.209 282.684,253.376 282.5,252C 281.923,249.863 281.59,247.696 281.5,245.5 Z"/></g>
<g><path style="opacity:1" fill="#9995eb" d="M 303.5,250.5 C 298.545,252.89 293.212,254.224 287.5,254.5C 292.615,252.75 297.949,251.416 303.5,250.5 Z"/></g>
<g><path style="opacity:1" fill="#989dee" d="M 210.5,263.5 C 212.009,266.678 213.342,270.011 214.5,273.5C 213.1,272.9 212.1,271.9 211.5,270.5C 210.532,268.393 210.198,266.059 210.5,263.5 Z"/></g>
<g><path style="opacity:1" fill="#e5e3ff" d="M 372.5,273.5 C 372.5,273.167 372.5,272.833 372.5,272.5C 387.5,272.5 402.5,272.5 417.5,272.5C 417.5,279.167 417.5,285.833 417.5,292.5C 417.167,292.5 416.833,292.5 416.5,292.5C 416.5,286.167 416.5,279.833 416.5,273.5C 401.833,273.5 387.167,273.5 372.5,273.5 Z"/></g>
<g><path style="opacity:1" fill="#fdfefe" d="M 372.5,273.5 C 387.167,273.5 401.833,273.5 416.5,273.5C 416.5,279.833 416.5,286.167 416.5,292.5C 401.833,292.5 387.167,292.5 372.5,292.5C 372.5,286.167 372.5,279.833 372.5,273.5 Z"/></g>
<g><path style="opacity:1" fill="#8c8ef5" d="M 211.5,270.5 C 212.1,271.9 213.1,272.9 214.5,273.5C 218.207,278.208 222.54,282.208 227.5,285.5C 222.807,285.179 218.807,284.013 215.5,282C 215.905,281.055 216.572,280.388 217.5,280C 215.945,278.354 214.279,278.021 212.5,279C 213.357,278.311 214.023,277.478 214.5,276.5C 213.685,274.724 212.518,274.057 211,274.5C 210.805,273.181 210.972,271.847 211.5,270.5 Z"/></g>
<g><path style="opacity:1" fill="#9391f1" d="M 255.5,271.5 C 259.094,272.457 262.76,273.124 266.5,273.5C 269.089,273.149 271.589,272.482 274,271.5C 274.833,271.833 275.667,272.167 276.5,272.5C 274.851,273.148 273.518,274.148 272.5,275.5C 275.107,276.318 277.774,276.818 280.5,277C 282.184,278.209 283.517,279.709 284.5,281.5C 274.598,278.534 264.932,275.201 255.5,271.5 Z"/></g>
<g><path style="opacity:1" fill="#989ae9" d="M 227.5,285.5 C 232.232,287.866 236.899,290.199 241.5,292.5C 236.94,291.702 232.606,290.202 228.5,288C 227.748,287.329 227.414,286.496 227.5,285.5 Z"/></g>
<g><path style="opacity:1" fill="#948ef5" d="M 293.5,285.5 C 296.644,286.172 299.644,287.172 302.5,288.5C 302.222,290.346 302.889,291.68 304.5,292.5C 305.452,290.955 305.785,289.288 305.5,287.5C 306.5,287.5 307.5,287.5 308.5,287.5C 309.023,290.028 310.023,292.361 311.5,294.5C 311.518,296.373 311.018,296.706 310,295.5C 309.308,296.025 308.808,296.692 308.5,297.5C 310.454,300.865 311.454,304.532 311.5,308.5C 308.556,298.543 302.556,290.876 293.5,285.5 Z"/></g>
<g><path style="opacity:1" fill="#b6b8f0" d="M 372.5,272.5 C 372.5,272.833 372.5,273.167 372.5,273.5C 372.5,279.833 372.5,286.167 372.5,292.5C 387.167,292.5 401.833,292.5 416.5,292.5C 416.833,292.5 417.167,292.5 417.5,292.5C 417.5,292.833 417.5,293.167 417.5,293.5C 402.167,293.5 386.833,293.5 371.5,293.5C 371.175,286.313 371.509,279.313 372.5,272.5 Z"/></g>
<g><path style="opacity:1" fill="#9c94e4" d="M 364.5,233.5 C 387.833,233.5 411.167,233.5 434.5,233.5C 411.833,234.167 389.167,234.833 366.5,235.5C 365.501,276.663 365.168,317.997 365.5,359.5C 365.167,359.5 364.833,359.5 364.5,359.5C 364.5,337.167 364.5,314.833 364.5,292.5C 364.5,272.833 364.5,253.167 364.5,233.5 Z"/></g>
<g><path style="opacity:1" fill="#8c89f3" d="M 366.5,235.5 C 366.5,253.833 366.5,272.167 366.5,290.5C 367.5,290.5 368.5,290.5 369.5,290.5C 369.657,291.873 369.49,293.207 369,294.5C 368.346,293.304 367.846,293.304 367.5,294.5C 368.167,294.833 368.833,295.167 369.5,295.5C 370.713,295.253 371.38,294.586 371.5,293.5C 386.833,293.5 402.167,293.5 417.5,293.5C 417.631,294.376 417.298,295.043 416.5,295.5C 402.549,294.517 388.549,294.184 374.5,294.5C 374.5,295.5 374.5,296.5 374.5,297.5C 370.211,296.483 367.878,298.15 367.5,302.5C 366.833,321.662 366.167,340.662 365.5,359.5C 365.168,317.997 365.501,276.663 366.5,235.5 Z"/></g>
<g><path style="opacity:1" fill="#9294ec" d="M 267.5,300.5 C 273.076,301.62 277.743,304.287 281.5,308.5C 279.914,307.587 278.414,307.587 277,308.5C 276.644,305.271 274.81,303.771 271.5,304C 269.907,303.051 268.574,301.885 267.5,300.5 Z"/></g>
<g><path style="opacity:1" fill="#9097ea" d="M 281.5,308.5 C 282.458,308.953 283.292,309.619 284,310.5C 286.394,316.276 287.061,322.276 286,328.5C 285.722,329.416 285.222,330.082 284.5,330.5C 284.666,325.156 284.499,319.823 284,314.5C 283.345,312.372 282.511,310.372 281.5,308.5 Z"/></g>
<g><path style="opacity:1" fill="#aba2f6" d="M 311.5,308.5 C 312.165,312.151 312.499,315.985 312.5,320C 312.49,324.229 311.823,328.062 310.5,331.5C 311.358,323.868 311.691,316.201 311.5,308.5 Z"/></g>
<g><path style="opacity:1" fill="#9590f2" d="M 228.5,317.5 C 229.5,317.5 230.5,317.5 231.5,317.5C 231.838,319.854 232.338,322.187 233,324.5C 234.333,323.833 235.333,322.833 236,321.5C 236.5,322 237,322.5 237.5,323C 235.798,325.235 234.798,327.735 234.5,330.5C 231.364,326.789 229.364,322.455 228.5,317.5 Z"/></g>
<g><path style="opacity:1" fill="#8d91f2" d="M 214.5,320.5 C 211.033,322.048 207.699,323.882 204.5,326C 206.084,330.264 207.751,334.431 209.5,338.5C 207.583,337.884 206.416,336.55 206,334.5C 204.612,335.554 203.112,335.72 201.5,335C 203.907,332.637 204.074,330.137 202,327.5C 200.535,329.786 199.701,329.286 199.5,326C 199.68,323.759 200.513,323.259 202,324.5C 205.605,321.746 209.771,320.413 214.5,320.5 Z"/></g>
<g><path style="opacity:1" fill="#a09df0" d="M 277.5,338.5 C 276.4,339.558 275.066,340.392 273.5,341C 263.441,344.826 253.775,344.326 244.5,339.5C 249.651,340.212 254.817,340.879 260,341.5C 266.696,341.054 272.53,340.054 277.5,338.5 Z"/></g>
<g><path style="opacity:1" fill="#8e93f3" d="M 212.5,342.5 C 218.339,349.336 225.339,354.67 233.5,358.5C 229.324,356.926 224.99,355.593 220.5,354.5C 218.878,353.067 217.545,351.401 216.5,349.5C 215.676,351.748 214.676,351.914 213.5,350C 213.833,349.667 214.167,349.333 214.5,349C 213.603,346.913 212.936,344.746 212.5,342.5 Z"/></g>
<g><path style="opacity:1" fill="#9e99ea" d="M 305.5,343.5 C 303.833,347.167 301.167,349.833 297.5,351.5C 299.833,348.5 302.5,345.833 305.5,343.5 Z"/></g>
<g><path style="opacity:1" fill="#c0befd" d="M 242.5,360.5 C 252.151,361.199 261.817,361.532 271.5,361.5C 267.681,362.166 263.681,362.499 259.5,362.5C 253.583,362.695 247.916,362.029 242.5,360.5 Z"/></g>
<g><path style="opacity:0.678" fill="#a3a5e2" d="M 89.5,411.5 C 89.8333,411.5 90.1667,411.5 90.5,411.5C 90.8333,411.5 91.1667,411.5 91.5,411.5C 91.5,438.5 91.5,465.5 91.5,492.5C 91.1667,492.5 90.8333,492.5 90.5,492.5C 90.8241,465.426 90.4907,438.426 89.5,411.5 Z"/></g>
</svg>
